<svg xmlns="http://www.w3.org/2000/svg" width="770" height="171" fill="none" viewBox="0 0 770 171">
  <rect width="770" height="170.863" y=".072" fill="#1C1735" rx="10"/>
  <path fill="#fff" d="M454.221 13.599h18.628c.298 0 .447.142.745.284.149.143.298.428.298.712 0 .285-.149.57-.298.712a1.166 1.166 0 0 1-.745.285h-18.032l.447-.854v14.666l-.596-.712h15.945c.298 0 .447.142.745.284.149.143.299.428.299.712 0 .285-.15.57-.299.712a1.166 1.166 0 0 1-.745.285h-15.796l.447-.57v14.951l-.149-.285h17.734c.298 0 .447.143.745.285.149.142.298.427.298.712s-.149.57-.298.712a1.166 1.166 0 0 1-.745.285h-18.628c-.298 0-.447-.143-.745-.285-.298-.143-.298-.427-.298-.712V14.453c0-.285.149-.427.298-.712.298-.142.447-.142.745-.142Z"/>
  <path fill="#fff" d="M472.848 48.056H454.22c-.596 0-1.192-.285-1.639-.712-.447-.427-.745-.997-.745-1.566V14.453c0-.57.298-1.14.745-1.566.447-.427 1.043-.712 1.639-.712h18.628c.596 0 1.192.285 1.639.712.447.427.745.996.745 1.708s-.298 1.282-.745 1.709c-.447.427-1.043.57-1.639.57h-16.094v10.394h13.859c.596 0 1.192.284 1.639.712.447.427.745.996.745 1.566 0 .712-.298 1.281-.745 1.709-.447.427-1.043.57-1.639.57h-13.859v11.532h16.094c.596 0 1.192.285 1.639.712.447.427.745.997.745 1.709 0 .712-.298 1.281-.745 1.709-.447.284-1.043.57-1.639.57Zm9.39-34.457c.149 0 .298 0 .447.142.149 0 .298.142.447.285l14.157 20.219h-1.043l14.157-20.22c.298-.284.596-.426.894-.426.298 0 .447.142.596.284.149.143.298.428.298.57v31.183c0 .284-.149.427-.298.711-.149.285-.447.285-.745.285s-.596-.142-.745-.285a1.063 1.063 0 0 1-.298-.712V16.59h.596l-13.263 19.22c0 .142-.149.285-.298.285s-.298.142-.447.142c-.149 0-.298 0-.447-.142-.149 0-.298-.143-.298-.285l-13.561-19.65h.745v29.474c0 .285-.149.428-.298.712a1.166 1.166 0 0 1-.745.285c-.298 0-.596-.142-.745-.285-.149-.142 0-.427 0-.712v-31.18c0-.285.149-.427.298-.57 0-.284.298-.284.596-.284Z"/>
  <path fill="#fff" d="M511.296 48.056a2.525 2.525 0 0 1-1.788-.712c-.447-.427-.745-.997-.745-1.566V21.999l-10.134 14.524a1.76 1.76 0 0 1-.745.712c-.596.284-1.49.427-2.235 0-.448-.143-.746-.428-1.044-.855l-10.133-14.666v23.921c0 .57-.298 1.14-.745 1.709-.894.854-2.683.854-3.428 0-.447-.427-.596-.997-.596-1.566V14.453c0-.57.149-.997.596-1.424.596-.854 1.789-.997 2.832-.712.447.142.745.427 1.043.712l12.518 17.94 12.518-17.798c.596-.854 1.49-1.139 2.384-.996.596 0 1.043.284 1.49.711.447.428.596.997.596 1.567v31.182c0 .57-.298 1.282-.745 1.709-.298.427-.894.712-1.639.712Zm23.845-17.941c1.49 0 2.831-.284 3.874-.996 1.044-.712 1.938-1.567 2.534-2.706.596-1.139.894-2.42.894-3.844s-.298-2.706-.894-3.702a6.735 6.735 0 0 0-2.534-2.42c-1.043-.57-2.384-.855-3.874-.855h-10.879l.149-.285v14.95l-.149-.142h10.879Zm0-16.517c1.937 0 3.576.428 4.917 1.14 1.342.712 2.534 1.85 3.279 3.132.745 1.424 1.192 2.99 1.192 4.699a10.61 10.61 0 0 1-1.192 4.84c-.745 1.425-1.937 2.564-3.279 3.418-1.341.854-2.98 1.282-4.917 1.282h-11.028l.149-.285v13.811c0 .285-.149.428-.298.712a1.166 1.166 0 0 1-.745.285c-.298 0-.596-.142-.745-.285a1.063 1.063 0 0 1-.298-.712V14.453c0-.285.149-.427.298-.712.149-.143.447-.285.745-.285h11.922v.142Z"/>
  <path fill="#fff" d="M523.367 48.056c-.894 0-1.49-.427-1.788-.712-.448-.427-.597-.997-.597-1.566V14.453c0-.57.298-1.14.746-1.566.447-.427 1.043-.712 1.639-.712h11.922c2.086 0 4.023.427 5.662 1.281a9.487 9.487 0 0 1 3.875 3.702c.894 1.567 1.341 3.418 1.341 5.411 0 1.993-.447 3.844-1.341 5.41a9.522 9.522 0 0 1-3.726 3.845c-1.639.997-3.576 1.424-5.662 1.424h-9.389v12.388c0 .57-.298 1.281-.745 1.708-.745.427-1.341.712-1.937.712Zm2.384-19.364h9.389a7.189 7.189 0 0 0 3.129-.712c.894-.57 1.49-1.14 1.937-2.136.447-.997.745-1.994.745-3.275s-.298-2.278-.745-3.133c-.447-.854-1.043-1.423-1.937-1.993a7.187 7.187 0 0 0-3.129-.712h-9.389v11.96Zm45.155 16.089c.298 0 .447.142.745.285.149.142.298.427.298.712s-.149.57-.298.712a1.166 1.166 0 0 1-.745.284h-18.181c-.298 0-.596-.142-.745-.284a1.063 1.063 0 0 1-.298-.712V14.453c0-.285.149-.427.298-.712.149-.143.447-.285.745-.285s.596.142.745.285c.149.142.298.427.298.712v31.182l-.894-.854h18.032Z"/>
  <path fill="#fff" d="M570.905 48.056h-18.181a2.525 2.525 0 0 1-1.788-.712c-.447-.427-.596-.996-.596-1.566V14.453c0-.57.298-1.139.745-1.566a2.817 2.817 0 0 1 3.577 0c.447.427.745.996.745 1.708V43.5h15.647c.596 0 1.192.285 1.639.712.447.427.745.996.745 1.566 0 .712-.298 1.282-.745 1.709-.596.284-1.192.57-1.788.57Zm34.575-17.94c0-2.99-.596-5.696-1.788-7.974-1.193-2.278-2.981-3.987-5.067-5.268-2.235-1.282-4.62-1.851-7.451-1.851-2.832 0-5.365.57-7.451 1.85-2.236 1.282-3.875 2.99-5.067 5.269-1.192 2.278-1.788 4.983-1.788 7.974 0 2.99.596 5.695 1.788 7.973 1.192 2.278 2.98 3.987 5.067 5.269 2.235 1.281 4.619 1.85 7.451 1.85 2.831 0 5.365-.569 7.451-1.85 2.086-1.282 3.874-2.99 5.067-5.269 1.192-2.278 1.788-4.983 1.788-7.973Zm2.086 0c0 2.563-.447 4.84-1.192 6.834-.745 2.136-1.937 3.845-3.427 5.41-1.491 1.567-3.279 2.706-5.216 3.56-1.938.855-4.173 1.282-6.557 1.282-2.385 0-4.62-.427-6.557-1.282-2.087-.854-3.726-1.993-5.216-3.56-1.49-1.565-2.682-3.274-3.428-5.41-.745-2.136-1.192-4.414-1.192-6.834 0-2.563.447-4.841 1.192-6.835.746-2.136 1.938-3.844 3.428-5.41 1.49-1.567 3.278-2.706 5.216-3.56 2.086-.854 4.172-1.282 6.557-1.282 2.384 0 4.619.428 6.557 1.282 2.086.854 3.725 1.993 5.216 3.56 1.49 1.566 2.682 3.274 3.427 5.41.894 1.994 1.192 4.272 1.192 6.835Z"/>
  <path fill="#fff" d="M591.023 48.484c-2.533 0-5.066-.428-7.153-1.282-2.235-.854-4.172-2.136-5.663-3.844-1.639-1.709-2.831-3.56-3.725-5.838-.894-2.278-1.341-4.699-1.341-7.404 0-2.706.447-5.126 1.341-7.404.894-2.278 2.086-4.272 3.725-5.838a16.49 16.49 0 0 1 5.663-3.844c2.236-.855 4.62-1.282 7.153-1.282 2.534 0 5.067.427 7.153 1.282 2.236.854 4.173 2.135 5.663 3.844 1.64 1.566 2.832 3.56 3.726 5.838.894 2.278 1.341 4.698 1.341 7.404 0 2.705-.447 5.126-1.341 7.404-.894 2.278-2.086 4.271-3.726 5.838a16.47 16.47 0 0 1-5.663 3.844c-2.086.855-4.47 1.282-7.153 1.282Zm0-32.18c-2.533 0-4.768.57-6.706 1.709-1.937 1.14-3.427 2.705-4.619 4.699-1.193 2.136-1.64 4.556-1.64 7.262 0 2.847.596 5.268 1.64 7.261 1.043 1.994 2.682 3.702 4.619 4.699 1.938 1.139 4.173 1.709 6.706 1.709 2.534 0 4.769-.57 6.706-1.71 1.938-1.138 3.428-2.704 4.62-4.698 1.192-1.993 1.639-4.556 1.639-7.261 0-2.848-.596-5.269-1.639-7.262-1.043-1.994-2.682-3.702-4.62-4.699-1.788-1.14-4.023-1.709-6.706-1.709Zm42.919-2.989c.298 0 .597.142.746.284.149.285.149.57.149.712v.285c0 .142-.149.142-.149.285l-11.773 15.235.447-1.424v16.944c0 .285-.149.427-.298.712a1.166 1.166 0 0 1-.745.285c-.298 0-.596-.143-.745-.285a1.063 1.063 0 0 1-.299-.712V29.12l.299.997-11.624-15.235c0-.143-.149-.143-.149-.285v-.285c0-.285.149-.427.298-.57.298-.142.447-.284.745-.284s.596.142.894.427l11.028 14.381-.447-.142 10.878-14.239c0-.427.298-.57.745-.57Z"/>
  <path fill="#fff" d="M622.319 48.056a2.567 2.567 0 0 1-1.789-.712c-.447-.427-.596-.997-.596-1.566V30.115l-11.176-14.38c-.149-.285-.298-.428-.298-.713-.149-.284-.149-.427-.149-.712 0-.712.298-1.281.894-1.708 1.192-.854 2.831-.57 3.576.427l9.538 12.387 9.537-12.387c.447-.57 1.192-.997 1.937-.997.745 0 1.491.285 1.938.854.298.428.447.855.447 1.424 0 .285 0 .57-.149.855 0 .142-.149.427-.298.57l-10.879 14.238v15.662c0 .57-.298 1.14-.745 1.709a2.525 2.525 0 0 1-1.788.712Zm19.373-34.457c.149 0 .298 0 .447.142.149 0 .298.142.447.285l14.158 20.219H655.7l14.157-20.22c.299-.284.597-.426.895-.426.298 0 .447.142.596.284.149.143.298.428.298.57v31.183c0 .284-.149.427-.298.711-.149.285-.447.285-.745.285s-.596-.142-.746-.285a1.063 1.063 0 0 1-.298-.712V16.59h.597l-13.264 19.22c0 .142-.149.285-.298.285s-.298.142-.447.142c-.149 0-.298 0-.447-.142-.149 0-.298-.143-.298-.285l-13.561-19.65h.745v29.474c0 .285-.149.428-.298.712a1.166 1.166 0 0 1-.745.285c-.298 0-.596-.142-.745-.285a1.063 1.063 0 0 1-.298-.712v-31.18c0-.285.149-.427.298-.57.447-.284.596-.284.894-.284Z"/>
  <path fill="#fff" d="M670.899 48.056a2.525 2.525 0 0 1-1.788-.712c-.447-.427-.745-.997-.745-1.566V21.999l-10.133 14.524a1.76 1.76 0 0 1-.746.712c-.596.284-1.49.427-2.235 0-.447-.143-.745-.428-1.043-.855l-10.134-14.666v23.921c0 .57-.298 1.14-.745 1.709-.894.854-2.682.854-3.427 0-.447-.427-.596-.997-.596-1.566V14.453c0-.57.149-.997.596-1.424.596-.854 1.788-.997 2.831-.712.447.142.745.427 1.043.712l12.518 17.94 12.518-17.798c.596-.854 1.49-1.139 2.384-.996.597 0 1.044.284 1.491.711.447.428.596.997.596 1.567v31.182c0 .57-.298 1.282-.745 1.709-.447.427-1.043.712-1.64.712Zm11.923-34.457h18.628c.298 0 .447.142.745.284.149.143.298.428.298.712 0 .285-.149.57-.298.712a1.166 1.166 0 0 1-.745.285h-18.031l.447-.854v14.666l-.596-.712h15.945c.298 0 .447.142.745.284.149.143.298.428.298.712 0 .285-.149.57-.298.712a1.166 1.166 0 0 1-.745.285h-15.796l.447-.57v14.951l-.149-.285h17.733c.298 0 .447.143.745.285.149.142.298.427.298.712s-.149.57-.298.712a1.166 1.166 0 0 1-.745.285h-18.628c-.298 0-.447-.143-.745-.285-.298-.143-.298-.427-.298-.712V14.453c0-.285.149-.427.298-.712.298-.142.447-.142.745-.142Z"/>
  <path fill="#fff" d="M701.45 48.056h-18.628c-.596 0-1.192-.285-1.639-.712-.447-.427-.745-.997-.745-1.566V14.453c0-.57.298-1.14.745-1.566.447-.427 1.043-.712 1.639-.712h18.628c.596 0 1.192.285 1.639.712.447.427.745.996.745 1.708s-.298 1.282-.745 1.709c-.447.427-1.043.57-1.639.57h-16.095v10.394h13.859c.596 0 1.193.284 1.64.712.447.427.745.996.745 1.566 0 .712-.298 1.281-.745 1.709-.447.427-1.044.57-1.64.57h-13.859v11.532h16.095c.596 0 1.192.285 1.639.712.447.427.745.997.745 1.709 0 .712-.298 1.281-.745 1.709-.447.284-1.043.57-1.639.57Zm33.531-34.458c.298 0 .596.143.745.285.149.143.298.427.298.57v31.182c0 .285-.149.57-.298.712a1.166 1.166 0 0 1-.745.285c-.149 0-.299 0-.448-.142-.149 0-.298-.143-.298-.285L711.286 16.16l.745-.284v29.9c0 .285-.149.428-.298.57-.149.143-.447.285-.596.285-.298 0-.596-.142-.745-.285-.149-.142-.298-.285-.298-.57V14.454c0-.285.149-.57.298-.712.149-.143.447-.285.596-.285.149 0 .298 0 .447.142.149 0 .298.143.298.285l22.8 29.759-.447.997V14.453c0-.285.149-.427.298-.57.149-.285.299-.285.597-.285Z"/>
  <path fill="#fff" d="M734.832 48.056c-.299 0-.746 0-1.044-.142-.447-.142-.745-.427-.894-.712l-19.671-25.63v24.49c0 .57-.298 1.14-.745 1.567-.447.427-1.043.57-1.639.57-.894 0-1.341-.285-1.639-.57-.447-.427-.596-.997-.596-1.566V14.738c0-.997.447-1.566.894-1.851.745-.57 1.49-.57 2.384-.285.447.143.745.427 1.043.712l19.82 25.914V14.453c0-.57.298-1.139.745-1.566.596-.57 1.192-.57 1.64-.57.894 0 1.49.428 1.788.712.447.428.596.997.596 1.567v31.04c0 .712-.298 1.424-.894 1.85-.596.286-1.192.57-1.788.57Zm20.714-1.424c-.298 0-.596-.142-.745-.285a1.059 1.059 0 0 1-.299-.712V14.739h1.938v30.898c0 .284-.149.427-.298.711-.149.143-.298.285-.596.285Zm-12.071-31.325c-.298 0-.447-.142-.745-.284-.298-.143-.298-.428-.298-.57 0-.285.149-.427.298-.57.149-.142.447-.284.745-.284h23.992c.298 0 .447.142.746.284.149.143.298.428.298.57 0 .285-.149.57-.298.712a1.17 1.17 0 0 1-.746.285h-23.992v-.143Z"/>
  <path fill="#fff" d="M755.544 48.056a2.525 2.525 0 0 1-1.788-.712c-.447-.427-.596-.997-.596-1.566V16.73h-9.537c-.596 0-1.193-.285-1.64-.57-.447-.427-.745-.996-.745-1.708 0-.57.298-1.281.745-1.709.447-.427 1.044-.57 1.64-.57h23.992c.596 0 1.192.143 1.64.57.447.428.745.997.745 1.709 0 .712-.298 1.282-.745 1.709-.448.427-1.044.57-1.64.57h-9.537v28.904c0 .57-.298 1.139-.745 1.708-.596.427-1.192.712-1.789.712ZM455.265 93.05l.745-1.85h16.094l.447 1.85h-17.286Zm9.239-20.361-12.518 30.043c0 .143-.149.285-.298.428-.149.142-.298.142-.596.142s-.596-.142-.745-.285c-.149-.142-.298-.285-.298-.569v-.428l13.263-31.325c.149-.284.149-.427.298-.427.149-.142.298-.142.596-.142s.447 0 .596.142c.149.143.298.285.298.427l13.263 31.325v.428c0 .284-.149.569-.298.712a1.168 1.168 0 0 1-.745.284c-.298 0-.447 0-.596-.142-.149-.142-.298-.285-.298-.427l-12.965-30.47 1.043.284Z"/>
  <path fill="#fff" d="M477.617 104.726c-.447 0-1.043-.142-1.341-.427a2.227 2.227 0 0 1-.894-1.139l-3.726-8.685h-14.604l-3.725 8.828c-.149.427-.448.854-.895.996-.447.285-.894.427-1.341.427-.894 0-1.49-.284-1.788-.569-.298-.285-.596-.854-.745-1.282-.149-.427 0-.712.149-1.139l13.412-31.325c.149-.57.596-.996 1.043-1.139.745-.427 1.937-.427 2.682.143.448.284.746.712.895 1.139l13.263 31.182c.149.285.149.57.149.855 0 .712-.298 1.281-.745 1.708a4.12 4.12 0 0 1-1.789.427ZM458.84 89.918h10.73l-5.365-12.815-5.365 12.815Zm39.79 11.533c2.981 0 5.514-.712 7.302-1.993 1.938-1.282 3.279-3.133 4.173-5.269.894-2.278 1.341-4.698 1.341-7.404 0-1.85-.298-3.702-.745-5.553a13.787 13.787 0 0 0-2.235-4.698c-1.043-1.424-2.385-2.421-4.024-3.275-1.639-.855-3.576-1.14-5.812-1.14h-11.624l.298-.427v30.186l-.298-.427h11.624Zm.596-31.182c2.534 0 4.62.427 6.408 1.281 1.789.854 3.279 2.136 4.471 3.702 1.192 1.566 2.086 3.275 2.533 5.268.596 1.994.894 3.987.894 6.123 0 2.99-.447 5.838-1.49 8.258-1.043 2.563-2.533 4.557-4.619 5.981-2.087 1.566-4.769 2.278-8.197 2.278H486.41c-.298 0-.447-.143-.745-.285a1.062 1.062 0 0 1-.298-.712V71.265c0-.284.149-.427.298-.712.149-.142.447-.284.745-.284h12.816Z"/>
  <path fill="#fff" d="M499.226 104.726H486.41c-.596 0-1.192-.285-1.788-.712-.447-.427-.745-.996-.745-1.566V71.266c0-.57.298-1.14.745-1.567.447-.427 1.043-.712 1.639-.712h12.816c2.683 0 5.067.57 7.153 1.567 1.938.996 3.726 2.42 4.918 4.129 1.192 1.708 2.235 3.56 2.831 5.695.597 2.136.895 4.272.895 6.55 0 3.132-.596 6.123-1.64 8.828-1.043 2.705-2.831 4.983-5.215 6.55-2.087 1.566-5.216 2.42-8.793 2.42Zm-10.431-4.556h9.835c2.683 0 4.918-.57 6.557-1.709 1.639-1.139 2.832-2.705 3.577-4.698.745-1.994 1.192-4.415 1.192-6.977 0-1.852-.298-3.56-.745-5.126-.447-1.567-1.192-2.99-2.087-4.272a10.888 10.888 0 0 0-3.427-2.848c-1.341-.712-3.13-.996-5.216-.996h-9.686v26.626Zm56.628-29.901c.298 0 .596.142.745.284.149.143.298.428.298.57 0 .142 0 .285-.149.427l-13.561 31.183-.447.427c-.149.142-.298.142-.596.142-.149 0-.447 0-.596-.142-.149-.143-.298-.285-.298-.427l-13.412-31.04s0-.143-.149-.285v-.285c0-.285.149-.427.298-.57.149-.142.447-.284.596-.284.447 0 .894.284 1.043.712l12.816 29.616h-.596l12.965-29.759c.298-.285.596-.57 1.043-.57Z"/>
  <path fill="#fff" d="M531.861 104.726c-.447 0-.894-.142-1.341-.427a2.227 2.227 0 0 1-.894-1.139l-13.412-30.898s-.149-.142-.149-.285c-.149-.284-.149-.57-.149-.712 0-.57.298-1.139.745-1.708.447-.427 1.043-.57 1.639-.57 1.043 0 1.938.57 2.385 1.567l11.176 25.914 11.326-25.915c.596-.996 1.341-1.423 2.235-1.423.895 0 1.491.285 1.789.712.447.427.596.996.596 1.566 0 .285 0 .57-.149.854l-13.561 31.325c-.298.427-.596.854-.894.997-.447 0-.895.142-1.342.142Zm23.249-2.278c0 .285-.149.569-.298.712a1.168 1.168 0 0 1-.745.285c-.298 0-.597-.143-.746-.285a1.064 1.064 0 0 1-.298-.712V71.265c0-.284.149-.57.298-.712a1.17 1.17 0 0 1 .746-.284c.298 0 .596.142.745.284.149.143.298.428.298.712v31.183Z"/>
  <path fill="#fff" d="M554.066 104.726c-.894 0-1.49-.427-1.788-.712-.447-.427-.596-.997-.596-1.566V71.265c0-.712.298-1.281.745-1.708.894-.855 2.533-.855 3.576 0 .447.427.745.996.745 1.708v31.183c0 .569-.298 1.139-.745 1.566-.596.427-1.192.712-1.937.712Zm19.97-.854c-2.533 0-4.768-.427-6.557-1.281-1.788-.855-3.576-2.136-5.365-3.702 0 0-.149-.143-.149-.285 0-.143-.149-.285-.149-.427 0-.285.149-.428.298-.712.299-.285.448-.285.746-.285s.596.142.894.427c1.341 1.424 2.831 2.563 4.619 3.275 1.789.712 3.577 1.139 5.514 1.139 1.639 0 3.13-.285 4.471-.712 1.341-.569 2.384-1.281 3.129-2.278.746-.997 1.193-2.136 1.193-3.417 0-1.567-.447-2.848-1.342-3.845-.894-.996-2.086-1.85-3.427-2.42-1.341-.57-2.832-1.282-4.471-1.709-1.192-.427-2.384-.854-3.576-1.424-1.193-.427-2.236-.996-3.279-1.708-.894-.712-1.788-1.567-2.235-2.563-.596-.997-.894-2.279-.894-3.845 0-1.566.447-2.99 1.341-4.129.894-1.282 2.086-2.278 3.725-2.99 1.64-.712 3.577-1.14 5.812-1.14 1.938 0 3.726.286 5.514.998 1.788.711 3.13 1.566 4.173 2.847.298.427.447.712.447.997 0 .285-.149.427-.298.712-.298.285-.447.285-.745.285s-.447-.143-.596-.285a13.524 13.524 0 0 0-2.087-1.994c-.894-.57-1.788-.996-2.831-1.281-1.043-.285-2.235-.427-3.428-.427a14.64 14.64 0 0 0-4.47.712c-1.342.57-2.385 1.281-3.13 2.135-.745.997-1.192 2.136-1.192 3.418 0 1.424.447 2.705 1.341 3.56.894.996 1.938 1.708 3.279 2.278 1.341.57 2.682 1.139 4.172 1.708 1.193.427 2.534.855 3.726 1.282 1.192.427 2.384 1.139 3.427 1.85 1.044.713 1.789 1.71 2.385 2.706.596 1.14.894 2.42.894 4.13 0 1.423-.447 2.847-1.341 3.986-.894 1.282-2.087 2.278-3.726 2.99-1.639.997-3.576 1.424-5.812 1.424Z"/>
  <path fill="#fff" d="M573.887 105.153c-2.683 0-5.067-.427-7.004-1.424-1.938-.854-3.875-2.278-5.663-3.987a1.958 1.958 0 0 1-.447-.57 2.588 2.588 0 0 1-.298-1.138c0-.57.298-1.14.745-1.709a2.315 2.315 0 0 1 1.788-.854c.447 0 1.192.142 1.937.854 1.192 1.281 2.534 2.278 4.173 2.99 2.98 1.282 6.408 1.282 8.941.285 1.043-.427 1.938-.997 2.534-1.851.596-.712.894-1.566.894-2.563 0-1.282-.298-2.278-1.043-2.99-.745-.855-1.789-1.566-2.981-2.136-1.341-.57-2.831-1.139-4.321-1.709-1.193-.427-2.534-.854-3.726-1.423-1.341-.57-2.533-1.14-3.577-1.851-1.192-.855-2.086-1.852-2.682-2.99-.596-1.282-1.043-2.706-1.043-4.415 0-1.85.596-3.417 1.49-4.983 1.043-1.424 2.533-2.563 4.322-3.417 1.788-.855 4.023-1.282 6.408-1.282 2.086 0 4.023.285 5.961.997 2.086.712 3.725 1.851 4.768 3.417.596.712.745 1.282.745 1.851 0 .427-.149.997-.894 1.709-1.043.997-2.682.854-3.576-.142-.596-.713-1.192-1.282-1.789-1.71-.745-.426-1.49-.853-2.384-1.138-2.235-.57-4.769-.427-6.855.284-1.043.428-1.937.997-2.533 1.71-.596.711-.894 1.565-.894 2.562 0 1.14.298 1.993.894 2.705.745.855 1.788 1.424 2.831 1.994 1.341.57 2.683 1.139 4.024 1.566 1.192.427 2.533.854 3.725 1.424 1.342.57 2.534 1.139 3.726 1.993 1.192.855 2.086 1.851 2.831 3.275.745 1.282 1.043 2.848 1.043 4.841 0 1.709-.596 3.275-1.49 4.841-1.043 1.424-2.384 2.563-4.172 3.418-1.789.854-3.875 1.281-6.259 1.281 0 .285-.149.285-.149.285Zm46.941-18.368c0-2.99-.597-5.695-1.789-7.973-1.192-2.278-2.98-3.987-5.066-5.268-2.236-1.282-4.62-1.851-7.452-1.851-2.831 0-5.364.57-7.451 1.85-2.235 1.282-3.874 2.99-5.066 5.269-1.193 2.278-1.789 4.983-1.789 7.974 0 2.99.596 5.695 1.789 7.973 1.192 2.278 2.98 3.987 5.066 5.268 2.236 1.282 4.62 1.851 7.451 1.851 2.832 0 5.365-.569 7.452-1.851 2.086-1.281 3.874-2.99 5.066-5.268 1.043-2.278 1.789-4.841 1.789-7.974Zm2.086 0c0 2.564-.447 4.842-1.192 6.835-.745 2.136-1.938 3.844-3.428 5.41-1.49 1.567-3.278 2.706-5.216 3.56-1.937.855-4.172 1.282-6.557 1.282-2.384 0-4.619-.427-6.557-1.282-2.086-.854-3.725-1.993-5.215-3.56-1.491-1.566-2.683-3.274-3.428-5.41-.745-2.136-1.192-4.414-1.192-6.835 0-2.562.447-4.84 1.192-6.834.745-2.136 1.937-3.844 3.428-5.41 1.49-1.567 3.278-2.706 5.215-3.56 2.087-.855 4.173-1.282 6.557-1.282 2.385 0 4.62.427 6.557 1.282 2.087.854 3.726 1.993 5.216 3.56 1.49 1.566 2.683 3.274 3.428 5.41.745 1.993 1.192 4.414 1.192 6.835Z"/>
  <path fill="#fff" d="M606.373 105.154c-2.533 0-5.067-.428-7.153-1.282-2.235-.854-4.173-2.136-5.663-3.844-1.639-1.709-2.831-3.56-3.726-5.838-.894-2.278-1.341-4.699-1.341-7.404 0-2.706.447-5.126 1.341-7.404.895-2.279 2.087-4.272 3.726-5.838a16.48 16.48 0 0 1 5.663-3.845c2.235-.854 4.62-1.281 7.153-1.281 2.533 0 5.067.427 7.153 1.281 2.235.855 4.173 2.136 5.663 3.845 1.639 1.566 2.831 3.56 3.725 5.838.895 2.278 1.342 4.698 1.342 7.404 0 2.705-.447 5.126-1.342 7.404-.894 2.278-2.086 4.271-3.725 5.838a16.483 16.483 0 0 1-5.663 3.844c-2.235.854-4.62 1.282-7.153 1.282Zm0-32.037c-2.533 0-4.769.57-6.706 1.708-1.937 1.14-3.428 2.706-4.62 4.7-1.192 1.992-1.639 4.555-1.639 7.26 0 2.849.596 5.27 1.639 7.263 1.043 1.993 2.683 3.701 4.62 4.698 1.937 1.14 4.173 1.709 6.706 1.709 2.533 0 4.769-.57 6.706-1.709 1.937-1.139 3.428-2.705 4.62-4.698 1.192-1.994 1.639-4.557 1.639-7.262 0-2.848-.596-5.269-1.639-7.262-1.192-1.993-2.683-3.56-4.62-4.699-1.937-1.139-4.173-1.708-6.706-1.708Zm25.483 13.526h12.667c1.341-.142 2.533-.57 3.726-1.14 1.192-.569 2.086-1.565 2.682-2.704.745-1.14 1.043-2.421 1.043-3.987 0-1.994-.745-3.56-2.086-4.841-1.49-1.282-3.428-1.851-5.812-1.851h-11.922l.298-.285v15.378l-.596-.57Zm-.596 16.802c-.298 0-.596-.143-.745-.285a1.064 1.064 0 0 1-.298-.712V71.265c0-.284.149-.427.298-.712.149-.142.447-.284.745-.284h13.114c1.937 0 3.726.427 5.067 1.139 1.49.712 2.682 1.708 3.427 2.99.894 1.281 1.192 2.705 1.192 4.414 0 1.424-.298 2.705-.745 3.987-.596 1.139-1.341 2.135-2.235 2.847-1.043.712-2.086 1.282-3.279 1.709l-2.235-.427c1.341 0 2.534.285 3.726.996 1.192.712 2.235 1.567 2.98 2.848.745 1.282 1.192 2.706 1.192 4.556 0 1.567 0 2.706.149 3.56.149.855.298 1.424.596 1.709.298.427.597.712.895.854l.447.427c.149.143.149.427 0 .712 0 .143-.149.285-.298.427-.149.143-.298.143-.447.143-.149 0-.299 0-.597-.143-.447-.284-.894-.569-1.341-1.139-.447-.569-.745-1.281-1.043-2.278-.298-.997-.447-2.563-.447-4.414 0-1.424-.298-2.705-.745-3.56-.447-.854-1.043-1.566-1.788-1.993-.745-.427-1.491-.854-2.385-.997-.894-.142-1.639-.284-2.235-.284h-12.369l.447-.57v14.381c0 .285-.149.427-.298.712-.149.427-.447.57-.745.57Z"/>
  <path fill="#fff" d="M631.259 104.726c-.894 0-1.49-.427-1.788-.712-.447-.427-.596-.997-.596-1.566V71.265c0-.57.298-1.139.745-1.708.447-.428 1.043-.712 1.639-.712h13.114c2.236 0 4.173.427 5.812 1.281 1.639.855 2.981 1.994 4.024 3.56.894 1.566 1.49 3.275 1.49 5.126 0 1.566-.298 3.132-.894 4.414-.596 1.281-1.49 2.563-2.682 3.417-.299.285-.597.427-1.044.712.895.712 1.789 1.566 2.385 2.705.894 1.424 1.341 3.275 1.341 5.269 0 1.423 0 2.563.149 3.274.149.855.298 1.14.447 1.282.149.285.298.427.447.569.298.285.745.57.894.997.298.57.298.997.149 1.566-.149.57-.447.855-.894 1.139a1.648 1.648 0 0 1-1.043.428c-.298 0-.894.142-1.49-.143-.745-.427-1.192-.854-1.789-1.424-.596-.712-1.043-1.566-1.341-2.847-.298-1.14-.447-2.706-.447-4.841 0-1.282-.149-2.279-.596-2.848-.298-.712-.745-1.14-1.341-1.566-.596-.428-1.192-.57-1.788-.712-.745-.143-1.491-.143-2.087-.143h-10.133v12.53c0 .57-.298 1.139-.745 1.566-.596.285-1.193.57-1.938.57Zm2.534-19.364h10.729c1.044-.143 1.938-.428 2.981-.997a7.813 7.813 0 0 0 2.235-2.136c.596-.854.894-1.993.894-3.275 0-1.566-.596-2.848-1.639-3.844-1.192-.997-2.682-1.567-4.769-1.567h-10.282v11.819h-.149Zm-178.528 64.5.745-1.851h16.094l.447 1.851h-17.286Zm9.239-20.503-12.518 30.043c0 .143-.149.285-.298.427-.149.143-.298.143-.596.143s-.596-.143-.745-.285c-.149-.142-.298-.285-.298-.569v-.428l13.263-31.325c.149-.284.149-.427.298-.427.149-.142.298-.142.596-.142s.447 0 .596.142c.149.143.298.285.298.427l13.263 31.325v.428c0 .284-.149.569-.298.711a1.163 1.163 0 0 1-.745.285c-.298 0-.447 0-.596-.142-.149-.143-.298-.285-.298-.427l-12.965-30.471 1.043.285Z"/>
  <path fill="#fff" d="M477.617 161.538c-.447 0-1.043-.142-1.341-.427a2.227 2.227 0 0 1-.894-1.139l-3.726-8.686h-14.604l-3.725 8.828a2.225 2.225 0 0 1-.895 1.139c-.447.285-.894.428-1.341.428-.894 0-1.49-.285-1.788-.57-.298-.285-.596-.854-.745-1.282-.149-.427 0-.711.149-1.139l13.412-31.325c.149-.569.596-.996 1.043-1.139.894-.427 1.937-.427 2.682.143.448.285.746.712.895 1.139l13.263 31.182c.149.285.149.57.149.855 0 .712-.298 1.281-.745 1.708-.597 0-1.193.285-1.789.285Zm-18.777-14.95h10.73l-5.365-12.815-5.365 12.815Zm35.616 13.953c-2.533 0-4.769-.427-6.557-1.281-1.788-.855-3.576-2.136-5.365-3.703 0 0-.149-.142-.149-.284 0-.143-.149-.285-.149-.427 0-.285.149-.428.298-.712.298-.285.447-.285.745-.285.299 0 .597.142.895.427 1.341 1.424 2.831 2.563 4.619 3.275 1.789.712 3.577 1.139 5.514 1.139 1.639 0 3.13-.285 4.471-.712 1.341-.569 2.384-1.281 3.129-2.278.745-.997 1.192-2.136 1.192-3.417 0-1.567-.447-2.848-1.341-3.845-.894-.997-2.086-1.708-3.427-2.42-1.341-.57-2.832-1.282-4.471-1.709-1.192-.427-2.384-.854-3.576-1.424-1.193-.427-2.236-.997-3.279-1.708-.894-.712-1.788-1.567-2.235-2.563-.596-.997-.894-2.279-.894-3.845 0-1.566.447-2.99 1.341-4.129.894-1.282 2.086-2.278 3.725-2.99 1.64-.712 3.577-1.139 5.812-1.139 1.938 0 3.726.285 5.514.996 1.788.712 3.13 1.567 4.173 2.848.298.427.447.712.447.997 0 .285-.149.427-.298.712-.298.285-.447.285-.745.285s-.447-.143-.596-.285a13.592 13.592 0 0 0-2.087-1.994c-.894-.569-1.788-.996-2.831-1.281-1.043-.285-2.236-.427-3.428-.427-1.639 0-3.129.285-4.47.712-1.342.569-2.385 1.281-3.13 2.135-.745.997-1.192 2.136-1.192 3.418 0 1.424.447 2.705 1.341 3.559.894.997 1.937 1.709 3.279 2.279 1.341.569 2.682 1.139 4.172 1.708 1.192.427 2.534.855 3.726 1.282 1.192.427 2.384 1.139 3.427 1.851 1.043.712 1.789 1.566 2.385 2.705.596 1.139.894 2.421.894 4.129 0 1.424-.447 2.848-1.341 3.987-.894 1.282-2.087 2.278-3.726 2.99-1.788.997-3.726 1.424-5.812 1.424Z"/>
  <path fill="#fff" d="M494.16 161.965c-2.682 0-5.067-.427-7.004-1.424-1.937-.854-3.875-2.278-5.663-3.987a1.98 1.98 0 0 1-.447-.569 2.59 2.59 0 0 1-.298-1.14c0-.427.149-.996.745-1.708a2.316 2.316 0 0 1 1.788-.855c.447 0 1.193.143 1.938.855 1.192 1.281 2.533 2.278 4.172 2.99 2.981 1.281 6.408 1.281 8.942.285 1.043-.427 1.937-.997 2.533-1.709.596-.712.894-1.566.894-2.563 0-1.281-.298-2.278-1.043-2.99-.745-.854-1.788-1.566-2.98-2.136-1.342-.569-2.832-1.139-4.322-1.708-1.192-.428-2.533-.855-3.726-1.424-1.341-.57-2.533-1.139-3.576-1.851-1.192-.855-2.086-1.851-2.683-2.99-.596-1.282-1.043-2.706-1.043-4.414 0-1.851.596-3.418 1.491-4.984 1.043-1.424 2.533-2.563 4.321-3.417 1.788-.855 4.024-1.282 6.408-1.282 2.086 0 4.024.285 5.961.997 2.086.712 3.726 1.851 4.769 3.417.596.712.745 1.282.745 1.851 0 .427-.149.997-.894 1.709-1.043.997-2.683.854-3.577-.142-.596-.712-1.192-1.282-1.937-1.709-.745-.427-1.49-.854-2.384-1.139-2.236-.57-4.769-.427-6.855.285-1.044.427-1.938.996-2.534 1.708-.596.712-.894 1.567-.894 2.563 0 1.139.298 1.994.894 2.706.745.854 1.788 1.423 2.832 1.993 1.341.569 2.682 1.139 4.023 1.566 1.192.427 2.534.855 3.726 1.424 1.341.57 2.533 1.139 3.725 1.993 1.192.855 2.087 1.851 2.832 3.275.745 1.282 1.043 2.848 1.043 4.841 0 1.709-.596 3.275-1.49 4.842-1.043 1.423-2.385 2.563-4.173 3.417-1.788.854-3.875 1.281-6.259 1.281.149.143 0 .143 0 .143Zm27.419-1.424c-2.533 0-4.768-.427-6.557-1.281-1.788-.855-3.576-2.136-5.365-3.703 0 0-.149-.142-.149-.284 0-.143-.149-.285-.149-.427 0-.285.149-.428.298-.712.298-.285.448-.285.746-.285s.596.142.894.427c1.341 1.424 2.831 2.563 4.619 3.275 1.789.712 3.577 1.139 5.514 1.139 1.639 0 3.13-.285 4.471-.712 1.341-.569 2.384-1.281 3.129-2.278.745-.997 1.193-2.136 1.193-3.417 0-1.567-.448-2.848-1.342-3.845-.894-.997-2.086-1.708-3.427-2.42-1.341-.57-2.832-1.282-4.471-1.709-1.192-.427-2.384-.854-3.576-1.424-1.193-.427-2.236-.997-3.279-1.708-.894-.712-1.788-1.567-2.235-2.563-.596-.997-.894-2.279-.894-3.845 0-1.566.447-2.99 1.341-4.129.894-1.282 2.086-2.278 3.725-2.99 1.64-.712 3.577-1.139 5.812-1.139 1.938 0 3.726.285 5.514.996 1.788.712 3.13 1.567 4.173 2.848.298.427.447.712.447.997 0 .285-.149.427-.298.712-.298.285-.447.285-.745.285s-.447-.143-.596-.285a13.592 13.592 0 0 0-2.087-1.994c-.894-.569-1.788-.996-2.831-1.281-1.043-.285-2.236-.427-3.428-.427-1.639 0-3.129.285-4.47.712-1.342.569-2.385 1.281-3.13 2.135-.745.997-1.192 2.136-1.192 3.418 0 1.424.447 2.705 1.341 3.559.894.997 1.937 1.709 3.279 2.279 1.341.569 2.682 1.139 4.172 1.708 1.192.427 2.534.855 3.726 1.282 1.192.427 2.384 1.139 3.427 1.851 1.044.712 1.789 1.566 2.385 2.705.596 1.139.894 2.421.894 4.129 0 1.424-.447 2.848-1.341 3.987-.894 1.282-2.087 2.278-3.726 2.99-1.639.997-3.576 1.424-5.812 1.424Z"/>
  <path fill="#fff" d="M521.281 161.965c-2.682 0-5.067-.427-7.004-1.424-1.937-.854-3.874-2.278-5.663-3.987a1.98 1.98 0 0 1-.447-.569 2.59 2.59 0 0 1-.298-1.14c0-.427.149-.996.745-1.708a2.317 2.317 0 0 1 1.789-.855c.447 0 1.192.143 1.937.855 1.192 1.281 2.533 2.278 4.172 2.99 2.981 1.281 6.408 1.281 8.942.285 1.043-.427 1.937-.997 2.533-1.709.596-.712.894-1.566.894-2.563 0-1.281-.298-2.278-1.043-2.99-.745-.854-1.788-1.566-2.98-2.136-1.341-.569-2.832-1.139-4.322-1.708-1.192-.428-2.533-.855-3.726-1.424-1.341-.57-2.533-1.139-3.576-1.851-1.192-.855-2.086-1.851-2.682-2.99-.597-1.282-1.044-2.706-1.044-4.414 0-1.851.596-3.418 1.491-4.984 1.043-1.424 2.533-2.563 4.321-3.417 1.789-.855 4.024-1.282 6.408-1.282 2.087 0 4.024.285 5.961.997 2.086.712 3.726 1.851 4.769 3.417.596.712.745 1.282.745 1.851 0 .427-.149.997-.894 1.709-1.043.997-2.683.854-3.577 0-.596-.712-1.192-1.282-1.937-1.709-.745-.427-1.49-.854-2.384-1.139-2.236-.569-4.769-.427-6.855.285-1.044.427-1.938.997-2.534 1.709-.596.712-.894 1.566-.894 2.563 0 1.139.298 1.993.894 2.705.745.854 1.789 1.424 2.832 1.993 1.341.57 2.682 1.139 4.023 1.567 1.192.427 2.534.854 3.726 1.423 1.341.57 2.533 1.14 3.725 1.994 1.193.854 2.087 1.993 2.832 3.275.745 1.281 1.043 2.847 1.043 4.841 0 1.708-.596 3.275-1.49 4.841-1.043 1.424-2.385 2.563-4.173 3.417-1.788.855-3.874 1.282-6.259 1.282.298 0 .149 0 0 0Zm46.943-18.368c0-2.99-.596-5.695-1.788-7.974-1.192-2.278-2.981-3.986-5.067-5.268-2.235-1.281-4.62-1.851-7.451-1.851-2.832 0-5.365.57-7.451 1.851-2.236 1.282-3.875 2.99-5.067 5.268-1.192 2.279-1.788 4.984-1.788 7.974s.596 5.696 1.788 7.974c1.192 2.278 2.98 3.986 5.067 5.268 2.235 1.281 4.619 1.851 7.451 1.851 2.831 0 5.365-.57 7.451-1.851 2.086-1.282 3.875-2.99 5.067-5.268 1.192-2.278 1.788-4.984 1.788-7.974Zm2.086 0c0 2.563-.447 4.841-1.192 6.835-.745 2.135-1.937 3.844-3.427 5.41-1.491 1.567-3.279 2.706-5.216 3.56-1.937.854-4.173 1.281-6.557 1.281-2.384 0-4.62-.427-6.557-1.281-2.086-.854-3.726-1.993-5.216-3.56-1.49-1.566-2.682-3.275-3.427-5.41-.746-2.136-1.193-4.414-1.193-6.835 0-2.563.447-4.841 1.193-6.834.745-2.136 1.937-3.845 3.427-5.411 1.49-1.566 3.279-2.705 5.216-3.56 2.086-.854 4.173-1.281 6.557-1.281 2.384 0 4.62.427 6.557 1.281 2.086.855 3.725 1.994 5.216 3.56 1.49 1.566 2.682 3.275 3.427 5.411.894 1.993 1.192 4.271 1.192 6.834Z"/>
  <path fill="#fff" d="M553.767 161.965c-2.533 0-5.066-.427-7.153-1.281-2.235-.855-4.172-2.136-5.662-3.845-1.64-1.566-2.832-3.559-3.726-5.838-.894-2.278-1.341-4.698-1.341-7.404 0-2.705.447-5.126 1.341-7.404.894-2.278 2.086-4.271 3.726-5.838a16.48 16.48 0 0 1 5.662-3.844c2.236-.854 4.62-1.282 7.153-1.282 2.534 0 5.067.428 7.154 1.282 2.235.854 4.172 2.136 5.662 3.844 1.64 1.567 2.832 3.56 3.726 5.838.894 2.278 1.341 4.699 1.341 7.404 0 2.706-.447 5.126-1.341 7.404-.894 2.279-2.086 4.272-3.726 5.838a16.482 16.482 0 0 1-5.662 3.845c-2.087.854-4.471 1.281-7.154 1.281Zm0-32.179c-2.533 0-4.768.569-6.706 1.708-1.937 1.14-3.427 2.706-4.619 4.699-1.192 2.136-1.64 4.557-1.64 7.262 0 2.848.597 5.268 1.64 7.262 1.043 1.993 2.682 3.702 4.619 4.698 1.938 1.139 4.173 1.709 6.706 1.709 2.534 0 4.769-.57 6.707-1.709 1.937-1.139 3.427-2.705 4.619-4.698 1.192-1.994 1.639-4.557 1.639-7.262 0-2.848-.596-5.268-1.639-7.262-1.043-1.993-2.682-3.702-4.619-4.699-1.789-1.139-4.173-1.708-6.707-1.708Zm49.625 0c.298.143.447.427.447.57 0 .285 0 .427-.149.712-.149.284-.298.284-.596.284s-.447 0-.745-.142c-1.342-.854-2.832-1.709-4.471-2.136-1.639-.569-3.427-.854-5.216-.854-2.086 0-4.023.427-5.961 1.139-1.788.712-3.427 1.851-4.768 3.133-1.342 1.423-2.534 2.99-3.279 4.841a16.087 16.087 0 0 0-1.192 6.122c0 2.278.447 4.272 1.192 6.123.745 1.851 1.937 3.417 3.279 4.841 1.341 1.281 2.98 2.421 4.768 3.132a16.395 16.395 0 0 0 5.961 1.14c1.789 0 3.577-.285 5.216-.855a21.26 21.26 0 0 0 4.471-2.136c.298-.142.447-.284.745-.142.298 0 .447.142.596.427.149.285.298.427.149.712 0 .285-.149.427-.447.57-.745.569-1.788.996-2.981 1.566-1.192.57-2.533.854-3.874 1.139a19.312 19.312 0 0 1-4.024.427c-2.384 0-4.62-.427-6.706-1.281-2.086-.855-3.874-1.994-5.514-3.56-1.639-1.566-2.831-3.275-3.725-5.411-.894-1.993-1.341-4.271-1.341-6.834 0-2.421.447-4.699 1.341-6.835.894-1.993 2.086-3.844 3.725-5.41 1.64-1.567 3.428-2.706 5.514-3.56 2.086-.854 4.322-1.281 6.706-1.281a20.5 20.5 0 0 1 5.812.854c1.937.854 3.577 1.709 5.067 2.705Z"/>
  <path fill="#fff" d="M592.513 161.966c-2.533 0-5.067-.428-7.302-1.424-2.235-.855-4.173-2.278-5.961-3.845-1.639-1.708-3.129-3.559-4.023-5.838-1.044-2.278-1.491-4.698-1.491-7.261 0-2.563.447-5.126 1.491-7.262 1.043-2.278 2.384-4.129 4.023-5.838 1.639-1.708 3.726-2.99 5.961-3.844 4.173-1.709 9.09-1.851 13.561-.427 1.937.569 3.875 1.424 5.365 2.563.745.569.894 1.139 1.043 1.566.149.569 0 1.139-.447 1.708-.447.57-1.043.997-1.788.997-.596 0-1.043-.142-1.49-.285-1.342-.854-2.832-1.566-4.322-1.993-3.13-.997-7.004-.997-10.134.285-1.639.712-3.129 1.566-4.321 2.848-1.192 1.281-2.236 2.705-2.981 4.413-.745 1.709-1.043 3.56-1.043 5.696 0 1.993.298 3.987 1.043 5.695.745 1.709 1.639 3.133 2.981 4.414 1.192 1.282 2.682 2.136 4.321 2.848 3.13 1.282 7.004 1.282 10.134.285 1.49-.427 2.831-1.139 4.173-1.994.447-.284 1.043-.427 1.788-.427.596.143 1.192.427 1.639.997.447.57.596 1.139.447 1.709-.149.712-.447 1.139-1.043 1.566a21.912 21.912 0 0 1-3.279 1.708 21.93 21.93 0 0 1-4.023 1.282c-1.341-.285-2.832-.142-4.322-.142Zm20.118-2.848c0 .285-.149.569-.298.712a1.168 1.168 0 0 1-.745.285c-.298 0-.596-.143-.745-.285a1.064 1.064 0 0 1-.298-.712v-31.04c0-.285.149-.57.298-.712.149-.143.447-.285.745-.285s.596.142.745.285c.149.142.298.427.298.712v31.04Z"/>
  <path fill="#fff" d="M611.589 161.538c-.894 0-1.49-.428-1.788-.712-.447-.427-.596-.997-.596-1.567v-31.182c0-.712.298-1.282.745-1.709.894-.854 2.534-.854 3.577 0 .447.427.745.997.745 1.709v31.182c0 .57-.298 1.14-.745 1.567-.745.427-1.341.712-1.938.712Zm12.965-11.676.745-1.851h16.094l.447 1.851h-17.286Zm9.239-20.503-12.518 30.043c0 .143-.149.285-.298.427-.149.143-.298.143-.596.143s-.596-.143-.745-.285c-.149-.142-.298-.285-.298-.569v-.428l13.263-31.325c.149-.284.149-.427.298-.427.149-.142.298-.142.596-.142s.447 0 .596.142c.149.143.298.285.298.427l13.263 31.325v.428c0 .284-.149.569-.298.711a1.163 1.163 0 0 1-.745.285c-.298 0-.447 0-.596-.142-.149-.143-.298-.285-.298-.427l-12.965-30.471 1.043.285Z"/>
  <path fill="#fff" d="M646.906 161.538c-.447 0-1.043-.142-1.341-.427a2.227 2.227 0 0 1-.894-1.139l-3.726-8.686h-14.604l-3.725 8.828a2.22 2.22 0 0 1-.895 1.139c-.447.285-.894.428-1.341.428-.894 0-1.49-.285-1.788-.57-.298-.285-.596-.854-.745-1.282-.149-.427 0-.711.149-1.139l13.412-31.325c.149-.569.596-.996 1.043-1.139.894-.427 1.937-.427 2.683.143.447.285.745.712.894 1.139l13.263 31.182c.149.285.149.57.149.855 0 .712-.298 1.281-.745 1.708-.597 0-1.193.285-1.789.285Zm-18.777-14.95h10.73l-5.365-12.815-5.365 12.815Zm33.829 13.527c-.298 0-.596-.143-.745-.285a1.064 1.064 0 0 1-.298-.712v-31.04h1.937v31.04c0 .285-.149.427-.298.712-.149.142-.298.285-.596.285Zm-12.071-31.325c-.298 0-.447-.143-.745-.285-.149-.142-.298-.427-.298-.57 0-.284.149-.427.298-.569.149-.143.447-.285.745-.285h23.993c.298 0 .447.142.745.285.149.142.298.427.298.569 0 .285-.149.57-.298.712a1.163 1.163 0 0 1-.745.285h-23.993v-.142Z"/>
  <path fill="#fff" d="M661.959 161.539a2.526 2.526 0 0 1-1.789-.712c-.447-.428-.596-.997-.596-1.567v-29.046h-9.537c-.596 0-1.192-.285-1.64-.57-.447-.427-.745-.997-.745-1.709 0-.569.298-1.139.745-1.708.448-.427 1.044-.57 1.64-.57h23.992c.596 0 1.193.285 1.64.57.447.427.745.996.745 1.708s-.298 1.282-.894 1.709c-.448.285-1.044.57-1.64.57h-9.537v29.046c0 .57-.298 1.139-.745 1.709-.447.285-1.043.57-1.639.57Zm20.713-34.458H701.3c.298 0 .447.142.745.285.149.142.298.427.298.712s-.149.569-.298.712a1.168 1.168 0 0 1-.745.284h-18.032l.447-.854v14.666l-.596-.712h15.946c.298 0 .447.142.745.285.149.142.298.427.298.712 0 .284-.149.569-.298.712a1.168 1.168 0 0 1-.745.284h-15.797l.447-.569v14.95l-.149-.284H701.3c.298 0 .447.142.745.284.149.143.298.428.298.712 0 .285-.149.57-.298.712a1.163 1.163 0 0 1-.745.285h-18.628c-.298 0-.447-.142-.745-.285-.298-.142-.298-.427-.298-.712v-31.325c0-.284.149-.427.298-.712.149-.142.447-.142.745-.142Z"/>
  <path fill="#fff" d="M701.301 161.539h-18.628c-.596 0-1.192-.285-1.639-.712-.447-.428-.745-.997-.745-1.567v-31.325c0-.569.298-1.139.745-1.566.447-.427 1.043-.712 1.639-.712h18.628c.596 0 1.192.285 1.64.712.447.427.745.997.745 1.709 0 .712-.298 1.281-.745 1.708-.448.428-1.044.57-1.64.57h-16.094v10.394h13.859c.596 0 1.192.285 1.639.712.447.427.745.997.745 1.709 0 .712-.298 1.281-.745 1.708-.447.428-1.043.57-1.639.57h-13.859v11.533h16.094c.596 0 1.192.285 1.64.712.447.427.745.997.745 1.709 0 .712-.298 1.281-.745 1.708-.448.143-1.044.428-1.64.428Zm17.434-.998c-2.533 0-4.768-.427-6.557-1.281-1.788-.855-3.576-2.136-5.364-3.703 0 0-.149-.142-.149-.284 0-.143-.149-.285-.149-.427 0-.285.149-.428.298-.712.298-.285.447-.285.745-.285s.596.142.894.427c1.341 1.424 2.831 2.563 4.62 3.275 1.788.712 3.576 1.139 5.513 1.139 1.64 0 3.13-.285 4.471-.712 1.341-.569 2.384-1.281 3.13-2.278.745-.997 1.192-2.136 1.192-3.417 0-1.567-.447-2.848-1.341-3.845-.895-.997-2.087-1.708-3.428-2.42-1.341-.57-2.831-1.282-4.471-1.709-1.192-.427-2.384-.854-3.576-1.424-1.192-.427-2.236-.997-3.279-1.708-.894-.712-1.788-1.567-2.235-2.563-.596-.997-.894-2.279-.894-3.845 0-1.566.447-2.99 1.341-4.129.894-1.282 2.086-2.278 3.726-2.99 1.639-.712 3.576-1.139 5.812-1.139 1.937 0 3.725.285 5.513.996 1.789.712 3.13 1.567 4.173 2.848.298.427.447.712.447.997 0 .285-.149.427-.298.712-.298.285-.447.285-.745.285s-.447-.143-.596-.285a13.501 13.501 0 0 0-2.087-1.994c-.894-.569-1.788-.996-2.831-1.281-1.043-.285-2.235-.427-3.427-.427-1.64 0-3.13.285-4.471.712-1.341.569-2.385 1.281-3.13 2.135-.745.997-1.192 2.136-1.192 3.418 0 1.424.447 2.705 1.341 3.559.895.997 1.938 1.709 3.279 2.279 1.341.569 2.682 1.139 4.173 1.708 1.192.427 2.533.855 3.725 1.282 1.192.427 2.384 1.139 3.428 1.851 1.043.712 1.788 1.566 2.384 2.705.596 1.139.894 2.421.894 4.129 0 1.424-.447 2.848-1.341 3.987-.894 1.282-2.086 2.278-3.726 2.99-1.639.997-3.576 1.424-5.812 1.424Z"/>
  <path fill="#fff" d="M718.437 161.965c-2.682 0-5.066-.427-7.004-1.424-1.937-.854-3.874-2.278-5.662-3.987-.15-.142-.299-.427-.448-.569a2.59 2.59 0 0 1-.298-1.14c0-.427.149-.996.746-1.708a2.316 2.316 0 0 1 1.788-.855c.447 0 1.192.143 1.937.855 1.192 1.281 2.533 2.278 4.173 2.99 2.98 1.281 6.408 1.281 8.941.285 1.043-.427 1.937-.997 2.533-1.709.597-.712.895-1.566.895-2.563 0-1.281-.298-2.278-1.044-2.99-.745-.854-1.788-1.566-2.98-2.136-1.341-.569-2.831-1.139-4.322-1.708-1.192-.428-2.533-.855-3.725-1.424-1.341-.57-2.534-1.139-3.577-1.851-1.192-.855-2.086-1.851-2.682-2.99-.596-1.282-1.043-2.706-1.043-4.414 0-1.851.596-3.418 1.49-4.984 1.043-1.424 2.533-2.563 4.322-3.417 1.788-.855 4.023-1.282 6.407-1.282 2.087 0 4.024.285 5.961.997 2.087.712 3.726 1.851 4.769 3.417.596.712.745 1.282.745 1.851 0 .427-.149.997-.894 1.709-1.043.854-2.682.854-3.576-.142-.597-.712-1.193-1.282-1.938-1.709-.745-.427-1.49-.854-2.384-1.139-2.235-.57-4.769-.427-6.855.285-1.043.427-1.937.996-2.534 1.708-.596.712-.894 1.567-.894 2.563 0 1.139.298 1.994.894 2.706.746.854 1.789 1.423 2.832 1.993 1.341.569 2.682 1.139 4.024 1.566 1.192.427 2.384.855 3.725 1.424 1.341.57 2.533 1.139 3.726 1.993 1.192.855 2.086 1.851 2.831 3.275.745 1.282 1.043 2.848 1.043 4.841 0 1.709-.596 3.275-1.49 4.842-1.043 1.423-2.384 2.563-4.173 3.417-1.788.854-3.874 1.281-6.259 1.281.298.143.149.143 0 .143ZM118.175 28.834c22.949.997 40.832 14.95 47.836 37.02.745 2.136-.298 3.845-.894 4.557-.596.854-2.086 2.136-4.471 2.136H57.076c6.557-26.484 31.741-45.137 61.099-43.713ZM390.737 85.22c-.149-21.927-8.941-42.431-25.184-58.093-16.542-16.09-38.597-24.918-62.143-24.918-55.138 0-80.472 42.431-97.312 70.624-1.341 2.135-2.533 4.271-3.725 6.265-33.53 54.818-53.201 63.646-87.178 63.646-18.628 0-34.127-5.98-44.856-17.229-7.004-7.261-11.624-16.374-13.71-26.483h104.017c10.581 0 20.417-4.7 26.675-12.815 6.259-8.116 8.197-18.368 5.067-28.05-10.431-32.75-38.448-54.107-73.021-55.673C74.362.215 35.765 30.685 28.91 72.547H13.86C6.11 72.547 0 78.385 0 85.789 0 93.05 6.259 99.03 13.86 99.03h14.752c2.385 16.943 9.538 32.321 21.31 44.424 15.946 16.659 39.194 25.772 65.422 25.772 48.581 0 75.554-18.653 111.021-76.746 1.193-1.994 2.534-4.272 3.875-6.408 15.2-25.487 34.275-57.239 73.17-57.239 16.095 0 31.146 5.98 42.472 16.944 11.325 10.964 17.435 25.487 17.137 40.865-.447 30.043-26.377 55.246-57.672 56.1-23.098.712-44.855-11.533-55.287-31.325-3.427-6.55-11.773-9.113-18.628-5.838-6.855 3.275-9.537 11.249-6.11 17.799 15.35 28.904 47.091 46.845 80.92 45.848 21.906-.712 41.875-9.113 56.777-22.355v9.113c0 7.262 6.259 13.242 13.859 13.242s13.859-5.98 13.859-13.242V85.219Z"/>
</svg>
