<svg xmlns="http://www.w3.org/2000/svg" width="424" height="364" fill="none" viewBox="0 0 424 364">
  <path fill="#000" d="M280.195 18.024c17.863 4.812 35.271 10.521 52.189 18.398 22.875 10.592 42.999 25.53 59.444 45.577 23.103 28.6 34.235 60.981 31.864 97.219-1.389 22.932-8.367 43.765-19.144 63.52-14.364 26.683-34.01 48.791-57.936 66.353-30.564 22.342-64.498 38.346-101.894 46.189-9.29 1.978-18.654 3.165-28.018 4.353-11.665 1.304-23.512 2.3-35.305 3.054-16.156 1.055-32.297-.193-48.532-3.262-3.616-.77-7.178-1.781-10.74-2.792-3.562-1.01-6.723-2.676-10.611-2.242-2.829.223-5.278-1.241-6.396-4.122-1.173-2.64-.466-5.771 2.27-7.815 2.152-1.696 4.432-2.843 6.712-3.99 6.149-2.613 12.189-4.744 18.337-7.357 4.798-2.227 9.596-4.454 14.212-6.989 3.739-2.015 6.509-5.33 8.675-9.329 3.477-6.447 3.413-12.874.098-19.453-2.637-5.106-6.258-9.21-10.81-12.552-5.867-4.228-12.134-7.801-19.075-9.514-5.461-1.55-11.214-2.926-16.73-4.235-10.319-2.416-20.584-5.072-30.576-8.933-23.256-8.906-42.138-23.749-55.956-45.357C5.472 188.446-1.985 159.928 1.09 129.529c1.903-20.735 9.396-39.371 20.341-56.515 15.882-24.458 37.325-42.212 63.121-54.629 13.336-6.469 27.004-11.05 41.458-14.637C136.412 1.317 163.431.269 164.673.365c27.805-.056 51.857 4.206 79.361 9.96 11.615 2.271 23.888 4.985 36.161 7.699Zm-125.38 322.51c2.191.365 3.378.702 4.383.731 4.016.114 8.033.229 11.921-.206 13.619-1.005 27.529-2.185 41.201-3.431 10.314-.918 20.316-2.694 30.482-5.192 40.953-10.167 77.602-29.244 110.332-55.586 29.941-24.057 46.668-56.734 49.381-96.721 1.265-20.147-2.18-39.58-10.808-58.433-12.072-25.983-30.926-45.431-54.938-59.935-12.006-7.252-24.977-12.47-38.348-17.034a700.716 700.716 0 0 0-69.661-18.23c-18.61-3.743-49.142-7.28-74.81-6.618-9.018.773-18.144 2.028-26.648 4.998-10.437 3.703-21.057 7.097-30.946 11.725-26.8 12.388-47.693 31.066-61.527 57.644-14.527 27.406-16.855 56.736-5.762 87.054 11.588 31.485 32.89 52.397 64.6 61.907l18.995 5.391c6.174 1.752 12.402 3.263 18.521 5.256 8.731 2.734 16.844 7.086 24.393 12.817 7.129 5.355 12.635 12.301 16.336 20.528 4.744 10.318 5.418 20.762 1.6 30.957-2.745 7.68-7.464 14.031-14.102 18.812-1.222.935-2.443 1.87-4.595 3.566Z"/>
</svg>
