<svg xmlns="http://www.w3.org/2000/svg" width="491" height="439" fill="none" viewBox="0 0 491 439">
  <path fill="#000" d="M170.459 62.474c-17.826 4.42-35.199 9.663-52.083 16.897-22.828 9.728-42.912 23.448-59.323 41.858-23.056 26.267-34.166 56.006-31.8 89.287 1.386 21.061 8.35 40.194 19.106 58.337 14.334 24.506 33.94 44.811 57.818 60.94 30.503 20.519 64.367 35.217 101.688 42.42 9.271 1.817 18.616 2.907 27.961 3.998 11.641 1.198 23.464 2.112 35.233 2.805 16.123.969 32.232-.178 48.434-2.996 3.609-.707 7.163-1.636 10.718-2.564 3.554-.928 6.709-2.458 10.589-2.059 2.824.204 5.268-1.14 6.384-3.786 1.17-2.424.464-5.3-2.266-7.177-2.147-1.558-4.423-2.611-6.698-3.665-6.137-2.4-12.164-4.357-18.3-6.756-4.789-2.046-9.577-4.091-14.183-6.419-3.732-1.851-6.496-4.895-8.658-8.568-3.47-5.921-3.405-11.823-.097-17.866 2.631-4.69 6.245-8.458 10.787-11.528 5.856-3.883 12.111-7.164 19.037-8.738 5.45-1.423 11.192-2.687 16.696-3.889 10.298-2.219 20.542-4.658 30.514-8.204 23.209-8.18 42.053-21.811 55.843-41.656 16.767-24.154 24.209-50.345 21.14-78.264-1.899-19.043-9.377-36.159-20.3-51.904-15.85-22.463-37.249-38.768-62.993-50.172-13.309-5.94-26.949-10.147-41.374-13.443-10.381-2.232-37.346-3.195-38.585-3.106-27.749-.051-51.751 3.863-79.2 9.147-11.591 2.086-23.839 4.578-36.088 7.07ZM295.585 358.67c-2.186.336-3.371.645-4.373.672-4.009.105-8.018.21-11.898-.189-13.591-.924-27.472-2.007-41.117-3.152-10.293-.843-20.275-2.474-30.42-4.768-40.87-9.337-77.445-26.858-110.109-51.051-29.88-22.094-46.573-52.105-49.28-88.829-1.263-18.503 2.175-36.351 10.786-53.666C71.22 133.824 90.036 115.963 114 102.643c11.982-6.66 24.926-11.454 38.271-15.645a748.647 748.647 0 0 1 69.519-16.742c18.573-3.438 49.042-6.687 74.659-6.079 8.999.71 18.107 1.863 26.593 4.59 10.416 3.401 21.015 6.519 30.883 10.769 26.746 11.377 47.598 28.532 61.404 52.941 14.497 25.17 16.82 52.107 5.749 79.952-11.564 28.915-32.823 48.121-64.468 56.856l-18.957 4.95c-6.161 1.609-12.377 2.997-18.483 4.827-8.714 2.511-16.81 6.509-24.344 11.772-7.114 4.918-12.609 11.297-16.303 18.853-4.735 9.476-5.407 19.068-1.597 28.431 2.74 7.054 7.449 12.886 14.074 17.277 1.219.859 2.438 1.717 4.585 3.275Z"/>
</svg>
