<svg width="31" height="35" viewBox="0 0 31 35" fill="none" xmlns="http://www.w3.org/2000/svg">
<path id="Vector" d="M27.9273 0H2.61736C1.9461 0 1.30233 0.307291 0.827675 0.854271C0.353022 1.40125 0.0863647 2.14312 0.0863647 2.91667V32.0833C0.0863647 32.8569 0.353022 33.5987 0.827675 34.1457C1.30233 34.6927 1.9461 35 2.61736 35H19.8107C20.1432 35.0012 20.4726 34.9263 20.7797 34.7795C21.0869 34.6327 21.3656 34.4171 21.5998 34.145L29.7164 24.7917C29.9524 24.5218 30.1396 24.2006 30.2669 23.8466C30.3943 23.4927 30.4593 23.1131 30.4583 22.7299V2.91667C30.4583 2.14312 30.1916 1.40125 29.717 0.854271C29.2423 0.307291 28.5985 0 27.9273 0ZM2.61736 2.91667H27.9273V21.875H20.3343C19.9987 21.875 19.6768 22.0286 19.4395 22.3021C19.2021 22.5756 19.0688 22.9466 19.0688 23.3333V32.0833H2.61736V2.91667ZM26.1382 24.7917L21.5998 30.0216V24.7917H26.1382Z" fill="black"/>
</svg>
