<svg xmlns="http://www.w3.org/2000/svg" width="541" height="421" fill="none" viewBox="0 0 541 421">
  <path fill="#000" d="M187.818 59.912c-19.642 4.239-38.783 9.267-57.387 16.205-25.152 9.329-47.28 22.486-65.363 40.142-25.404 25.189-37.646 53.709-35.038 85.625 1.527 20.198 9.2 38.546 21.05 55.946 15.795 23.501 37.398 42.973 63.707 58.44 33.608 19.678 70.921 33.773 112.042 40.682 10.215 1.742 20.512 2.788 30.808 3.834 12.826 1.148 25.854 2.025 38.821 2.69 17.765.928 35.514-.171 53.366-2.874 3.976-.678 7.893-1.568 11.809-2.458 3.917-.891 7.392-2.358 11.668-1.975 3.111.196 5.804-1.094 7.033-3.631 1.29-2.325.512-5.083-2.496-6.882-2.366-1.495-4.873-2.505-7.381-3.515-6.761-2.302-13.402-4.178-20.163-6.48-5.276-1.961-10.552-3.923-15.627-6.155-4.112-1.775-7.157-4.695-9.54-8.217-3.823-5.678-3.752-11.338-.107-17.134 2.9-4.497 6.882-8.111 11.886-11.054 6.452-3.724 13.344-6.871 20.975-8.38 6.006-1.365 12.332-2.577 18.397-3.73 11.346-2.128 22.633-4.467 33.621-7.868 25.572-7.844 46.335-20.917 61.529-39.948 18.474-23.163 26.674-48.28 23.293-75.054-2.093-18.263-10.332-34.677-22.368-49.776-17.463-21.542-41.042-37.178-69.407-48.115-14.664-5.697-29.693-9.731-45.586-12.891-11.439-2.142-41.149-3.064-42.514-2.98-30.575-.049-57.022 3.705-87.265 8.773-12.772 2-26.267 4.39-39.763 6.78Zm137.868 284.052c-2.41.322-3.716.619-4.82.644-4.417.101-8.833.202-13.109-.181-14.974-.886-30.27-1.925-45.304-3.023-11.341-.808-22.339-2.372-33.517-4.572-45.032-8.955-85.331-25.757-121.321-48.958-32.922-21.188-51.316-49.969-54.299-85.187-1.39-17.745 2.397-34.86 11.885-51.466 13.274-22.884 34.005-40.013 60.409-52.787 13.202-6.387 27.464-10.984 42.167-15.003a928.787 928.787 0 0 1 76.599-16.056c20.464-3.296 54.036-6.412 82.261-5.829 9.916.681 19.951 1.787 29.301 4.402 11.477 3.261 23.155 6.251 34.028 10.327 29.47 10.91 52.444 27.362 67.656 50.77 15.973 24.138 18.533 49.97 6.335 76.673-12.742 27.73-36.165 46.149-71.033 54.525l-20.887 4.748c-6.789 1.543-13.637 2.874-20.366 4.629-9.601 2.408-18.521 6.242-26.822 11.289-7.839 4.717-13.894 10.834-17.963 18.08-5.217 9.088-5.958 18.286-1.759 27.266 3.018 6.764 8.206 12.357 15.506 16.568a386.51 386.51 0 0 1 5.053 3.141Z"/>
</svg>
