<svg xmlns="http://www.w3.org/2000/svg" width="456" height="352" fill="none" viewBox="0 0 456 352">
  <path fill="#000" d="M153.615 332.608c-19.13-4.879-37.761-10.619-55.842-18.451-24.447-10.534-45.892-25.238-63.328-44.838-24.49-27.96-36.083-59.427-33.128-94.459 1.748-22.17 9.476-42.24 21.273-61.219 15.725-25.638 37.073-46.783 62.965-63.476 33.076-21.236 69.698-36.297 109.949-43.42 9.999-1.797 20.069-2.83 30.138-3.862C238.184 1.767 250.919.952 263.592.37c17.363-.82 34.684.59 52.085 3.761 3.875.79 7.689 1.812 11.503 2.835 3.813 1.022 7.189 2.673 11.37 2.301 3.041-.18 5.655 1.267 6.823 4.068 1.23 2.569.435 5.59-2.525 7.533-2.33 1.614-4.792 2.696-7.254 3.777-6.633 2.452-13.143 4.438-19.776 6.89-5.178 2.094-10.356 4.19-15.341 6.585-4.038 1.902-7.05 5.075-9.422 8.918-3.806 6.194-3.809 12.412-.323 18.82 2.775 4.973 6.618 8.988 11.468 12.279 6.254 4.164 12.945 7.699 20.379 9.443 5.848 1.567 12.011 2.97 17.92 4.306 11.055 2.465 22.049 5.164 32.737 9.024 24.875 8.907 44.988 23.503 59.585 44.581 17.748 25.654 25.436 53.339 21.793 82.713-2.277 20.038-10.533 37.976-22.481 54.427-17.331 23.465-40.559 40.375-68.403 52.067-14.394 6.093-29.124 10.354-44.687 13.646-11.2 2.222-40.229 2.899-41.561 2.791-29.862-.293-55.645-4.716-85.118-10.627-12.449-2.341-25.599-5.12-38.749-7.899ZM291.889 22.134c-2.349-.381-3.62-.722-4.698-.762-4.313-.161-8.625-.322-12.806.05-14.637.803-29.589 1.771-44.286 2.807-11.087.76-21.849 2.353-32.794 4.643-44.096 9.326-83.67 27.327-119.116 52.406-32.425 22.902-50.757 54.31-54.12 92.964-1.584 19.477 1.897 38.322 10.952 56.671 12.673 25.289 32.702 44.341 58.327 58.673 12.813 7.166 26.684 12.377 40.993 16.959a820.184 820.184 0 0 0 74.608 18.506c19.944 3.854 52.694 7.657 80.268 7.336 9.694-.636 19.509-1.736 28.675-4.504 11.25-3.452 22.694-6.604 33.366-10.958 28.921-11.652 51.57-29.463 66.725-55.005 15.909-26.335 18.738-54.683 7.165-84.156-12.091-30.606-34.733-51.105-68.681-60.702l-20.34-5.452c-6.61-1.772-13.282-3.312-19.831-5.316-9.347-2.754-18.011-7.067-26.054-12.706-7.595-5.27-13.431-12.058-17.313-20.064-4.979-10.042-5.585-20.156-1.371-29.972 3.035-7.396 8.174-13.482 15.356-18.025 1.323-.89 2.646-1.779 4.975-3.393Z"/>
</svg>
