<svg xmlns="http://www.w3.org/2000/svg" width="483" height="344" fill="none" viewBox="0 0 483 344">
  <path fill="#000" d="M283.157 342.268c20.889 1.397 41.491 1.884 62.074.359 27.815-2.013 53.636-8.607 76.621-20.724 32.397-17.398 52.48-41.745 58.573-73.581 3.98-20.112 1.281-40.152-5.875-60.442-9.45-27.347-25.837-52.402-48.044-74.878-28.391-28.634-62.027-52.87-101.451-71.174-9.786-4.573-19.845-8.49-29.903-12.407-12.571-4.728-25.419-9.249-38.264-13.546-17.593-5.904-35.723-9.828-54.395-12.218-4.18-.458-8.357-.693-12.535-.927-4.177-.235-8.07.217-12.26-1.36-3.072-1.066-6.129-.567-8.057 1.56-1.93 1.902-1.902 4.809.629 7.409 1.969 2.122 4.212 3.812 6.455 5.502 6.164 4.145 12.323 7.843 18.487 11.989 4.765 3.396 9.529 6.792 14.018 10.396 3.646 2.886 5.909 6.589 7.34 10.692 2.291 6.609.675 12.105-4.569 16.726-4.141 3.566-9.128 5.968-14.959 7.428-7.497 1.813-15.28 2.94-23.358 2.263-6.406-.36-13.092-.959-19.499-1.542-11.98-1.12-23.957-2.016-35.924-1.795-27.83.448-52.257 7.344-72.716 21.614-24.882 17.373-39.976 39.542-43.888 66.585-2.884 18.385.912 36.699 8.882 54.801 11.663 25.906 31.08 47.779 56.59 66.419 13.177 9.679 27.173 17.84 42.277 25.392 10.907 5.305 40.501 14.566 41.895 14.868 30.702 8.652 58.295 12.436 90.06 16.008 13.377 1.646 27.586 3.114 41.796 4.583ZM222.2 26.664c2.508.364 3.901.443 5.017.729 4.464 1.144 8.929 2.29 13.12 3.865 14.801 5.078 29.883 10.394 44.687 15.695 11.172 3.98 21.794 8.599 32.422 13.888 42.794 21.399 78.691 49.114 108.513 81.851 27.289 29.913 37.91 63.135 31.293 98.294-3.447 17.684-11.924 33.297-25.989 46.809-19.582 18.564-45.084 29.422-75.096 34.44-15.006 2.509-30.589 2.975-46.457 2.754a995.091 995.091 0 0 1-81.333-5.91c-21.457-2.546-56.034-8.958-84.229-17.469-9.775-3.454-19.555-7.356-28.234-12.536-10.639-6.408-21.555-12.608-31.365-19.639-26.626-18.926-45.215-41.423-54.107-68.515-9.457-28.017-4.976-53.911 14.567-76.5 20.37-23.437 48.93-34.794 86.243-33.144l22.28 1.251c7.24.407 14.483 1.037 21.722 1.22 10.302.356 20.311-.87 30.028-3.452 9.162-2.39 16.914-6.648 22.98-12.564 7.722-7.387 10.977-16.143 9.211-26.075-1.186-7.44-4.871-14.352-11.055-20.51-1.124-1.18-2.249-2.36-4.218-4.482Z"/>
</svg>
